<svg width="22" height="22" fill="none" xmlns="http://www.w3.org/2000/svg"><path d="M8.6 14.6L10 13.175L7.825 11L10 8.825L8.6 7.4L5 11L8.6 14.6ZM13.4 14.6L17 11L13.4 7.4L12 8.825L14.175 11L12 13.175L13.4 14.6ZM4 20C3.45 20 2.97917 19.8042 2.5875 19.4125C2.19583 19.0208 2 18.55 2 18V4C2 3.45 2.19583 2.97917 2.5875 2.5875C2.97917 2.19583 3.45 2 4 2H18C18.55 2 19.0208 2.19583 19.4125 2.5875C19.8042 2.97917 20 3.45 20 4V18C20 18.55 19.8042 19.0208 19.4125 19.4125C19.0208 19.8042 18.55 20 18 20H4ZM4 18H18V4H4V18Z" fill="#071235" fill-opacity="0.35"/></svg>