<svg xmlns="http://www.w3.org/2000/svg" width="106" height="28" fill="none"><g fill="#fff" clip-path="url(#a)"><path d="M85.791 24.937h-3.928c-.276 0-.506-.126-.614-.272a.57.57 0 0 1-.092-.356h4.662l.373-1.182h-4.61c.357-.528.793-.629 1.126-.629h3.85l.372-1.185h-4.222c-.734 0-2.055.289-2.65 2.225-.283.921-.045 1.517.205 1.856.343.46.926.729 1.6.729h3.556zM42.578 24.937H38.65c-.586 0-.784-.549-.633-1.039.374-1.22 1.023-1.4 1.478-1.4h3.85l.372-1.185s-3.609.004-3.609 0h-.613c-.734 0-2.055.289-2.65 2.225-.283.922-.045 1.517.205 1.856.343.461.926.73 1.6.73 0 0 .613.003.613 0h2.943zM57.999 21.313c-.46 0-.754.322-.754.322l-2.321 2.255-1.167-2.255s-.173-.323-.66-.323h-.89l-1.514 4.807 1.284.004 1.03-3.273 1.152 2.23h1.172l2.303-2.234-1.03 3.277h1.284l1.513-4.806s-1.048-.005-1.402-.005M64.855 23.03a.68.68 0 0 1-.664.424h-2.865l.302-.956h2.852c.085 0 .213-.004.29.038.18.11.159.335.085.495m1.132-1.164a1.2 1.2 0 0 0-.405-.344c-.003 0-.007-.004-.01-.004q-.017-.006-.034-.017c-.34-.163-.74-.188-1.051-.188H61.4v.004h-.686l-1.512 4.806h1.285l.467-1.483h3.217q.007-.001.013.004c.977 0 1.626-.503 1.93-1.488.161-.523.119-.96-.127-1.29M80.157 21.317h-5.74l-.358 1.14h2.21l-1.153 3.666H76.4l1.155-3.667h2.244zM89.123 22.498h2.852c.085 0 .213-.004.29.038.18.11.16.335.085.495a.68.68 0 0 1-.664.423H88.82zm4.486.658c.162-.523.12-.96-.127-1.29a1.2 1.2 0 0 0-.405-.344c-.003 0-.007-.004-.01-.004q-.017-.006-.034-.017c-.34-.163-.74-.188-1.051-.188h-3.087v.004h-.685l-1.513 4.806h1.285l.467-1.483h2.679c.424.025.836.163.653.75l-.231.733h1.285l.115-.369c.21-.662.071-1.14-.113-1.445.352-.248.61-.629.772-1.153M95.977 22.582c.17-.121.5-.084.67-.084h3.608l.372-1.185h-3.98c-.825 0-1.57.368-1.899.942a1.18 1.18 0 0 0-.005 1.211c.407.7 1.285.713 2 .788.26.021.487.042.706.059q.3.024.599.054c.275.025.96.021.806.37-.091.209-.556.204-.76.204h-3.946l-.372 1.182h4.318c.825 0 1.57-.369 1.9-.939a1.19 1.19 0 0 0 .005-1.215c-.408-.7-1.286-.712-2-.788-.26-.02-.485-.041-.704-.058q-.3-.024-.601-.055c-.276-.025-.953-.017-.806-.373a.27.27 0 0 1 .089-.113M45.648 24.893c-.361-.071-.723-.247-.755-.65-.03-.373.145-.804.341-1.119.409-.658 1.282-.657 1.97-.662.428-.004.868-.004 1.29.076.322.058.73.184.797.553.068.381-.104.796-.288 1.123-.147.26-.354.465-.633.583-.389.163-.842.171-1.258.18-.487.008-.984.004-1.464-.084.45.084-.323-.063 0 0m4.882-1.572c.014-.674-.269-1.29-.862-1.638-.614-.36-1.32-.386-2.002-.402-.709-.017-1.433-.03-2.103.184-.696.218-1.203.7-1.529 1.345-.17.34-.321.696-.356 1.069-.032.34-.015.691.108 1.014.243.637.842.98 1.478 1.131.686.16 1.418.155 2.12.126.485-.02.98-.071 1.436-.243.45-.172.826-.47 1.1-.867.349-.503.597-1.115.61-1.719M72.257 21.318l-.756 2.405a3 3 0 0 1-.223.495c-.146.26-.354.465-.633.582-.389.16-1.011.176-1.426.176-1.205 0-1.642-.163-1.242-1.253l.756-2.405h-1.285l-.756 2.405c-.445 1.412-.122 2.443 2.266 2.443.178 0 .526-.004.702-.012.484-.021.979-.072 1.435-.248.45-.167.826-.47 1.1-.863.272-.394.386-.679.59-1.32l.757-2.405zM37.138 13.603H26.294c-.762 0-1.396-.344-1.694-.748-.41-.555-.255-1.458-.052-2.116 1.033-3.361 2.823-3.856 4.08-3.856h10.624l1.028-3.28H28.628c-2.028 0-5.674.8-7.315 6.143-.781 2.541-.124 4.183.565 5.116.948 1.286 2.557 2.02 4.416 2.02h9.815zM103.064 13.603H92.22c-.762 0-1.395-.344-1.694-.748-.197-.271-.262-.615-.255-.98h12.87l1.028-3.268H91.447c.984-1.457 2.188-1.724 3.107-1.724h10.625l1.028-3.28H94.554c-2.027 0-5.673.8-7.315 6.143-.78 2.541-.124 4.183.565 5.116.948 1.286 2.558 2.02 4.416 2.02h9.815zM58.88 16.883h3.548l4.175-13.271h-3.547zM6.874 6.628c-.197.875-1.1 1.583-2.016 1.583-.917 0-1.5-.708-1.304-1.583S4.653 5.04 5.569 5.04s1.501.713 1.305 1.588M20.607 3.447c-.179.797-1.002 1.448-1.839 1.448-.836 0-1.37-.651-1.19-1.448.18-.802 1.003-1.448 1.84-1.448.836 0 1.369.646 1.19 1.448M13.786 14.519c-.332 1.478-1.855 2.676-3.403 2.676-1.547 0-2.533-1.198-2.201-2.676s1.855-2.677 3.402-2.677 2.533 1.198 2.202 2.677M60.275 3.603H43.069l-1.028 3.28h7.23l-3.147 10h3.548l3.146-10h6.429z"/><path d="M4.332 16.879c1.819-2.272 6.304-7.861 7.659-9.44.472-.551.948-.81 1.37-.672.422.142.593.672.675 1.136.48 2.733 1.435 7.896 1.621 8.976h3.434l-.063-.37c-.01-.06-1.062-6.166-1.673-9.26-.387-1.962-1.42-3.373-3.023-3.795-1.81-.473-3.7.44-5.06 1.997C7.507 7.464 1.185 15.399.909 15.743L0 16.879zM83.718 3.61c-1.819 2.274-6.304 7.862-7.659 9.444-.472.55-.948.804-1.371.667-.422-.138-.592-.667-.674-1.135-.481-2.73-1.435-7.898-1.622-8.977H68.96l.063.37c.01.06 1.061 6.17 1.672 9.264.388 1.96 1.887 3.37 3.49 3.792 1.811.473 3.233-.438 4.594-1.995 1.764-2.016 8.087-9.947 8.362-10.291l.91-1.14z"/></g><defs><clipPath id="a"><path fill="#fff" d="M0 0h106v28H0z"/></clipPath></defs></svg>